<svg xmlns="http://www.w3.org/2000/svg" xmlns:xlink="http://www.w3.org/1999/xlink" fill="none" version="1.1" width="28" height="28" viewBox="0 0 28 28"><defs><linearGradient x1="0.5" y1="0" x2="0.5" y2="1" id="master_svg0_1_02310"><stop offset="0%" stop-color="#B6262F" stop-opacity="1"/><stop offset="100%" stop-color="#E2646C" stop-opacity="1"/></linearGradient></defs><g><g><g><path d="M15.846433492279052,4.172643L22.92383349227905,10.35145C23.555433492279054,10.904959999999999,23.916633492279054,11.7054,23.916633492279054,12.54885L23.916633492279054,21.6062C23.912933492279052,23.2055,22.642533492279053,24.5,21.076733492279054,24.5L6.923263492279053,24.5C5.3572934922790525,24.5,4.083333492279053,23.2015,4.083333492279053,21.6062L4.083333492279053,12.54885C4.082811074279053,11.70273,4.445734492279053,10.89897,5.076155492279053,10.35006L12.153573492279053,4.172643C13.174913492279053,3.277868,14.811533492279052,3.273706,15.846433492279052,4.172643ZM10.590243492279054,18.6667L17.409133492279054,18.6667C17.64983349227905,18.6669,17.87223349227905,18.5559,17.992833492279054,18.375500000000002C18.113333492279054,18.1951,18.113533492279053,17.9728,17.993433492279053,17.7922C17.873333492279052,17.6116,17.65113349227905,17.5002,17.41053349227905,17.5L10.590243492279054,17.5C10.218263492279053,17.5,9.916703492279053,17.761200000000002,9.916703492279053,18.0833C9.916703492279053,18.4055,10.218263492279053,18.6667,10.590243492279054,18.6667Z" fill-rule="evenodd" fill="url(#master_svg0_1_02310)" fill-opacity="1"/></g></g></g></svg>