<svg xmlns="http://www.w3.org/2000/svg" xmlns:xlink="http://www.w3.org/1999/xlink" fill="none" version="1.1" width="28" height="28" viewBox="0 0 28 28"><g><g><g><path d="M6.923453492279053,24.5L21.07793349227905,24.5C22.643033492279052,24.5,23.912933492279052,23.2062,23.916633492279054,21.6077L23.916633492279054,12.55053C23.916633492279054,11.70711,23.556733492279054,10.9053,22.925133492279052,10.3518L15.847233492279052,4.173146C14.813633492279052,3.274231,13.175533492279053,3.277006,12.154123492279053,4.173146L5.076222492279053,10.35041C4.445989492279053,10.90114,4.083333492279053,11.70156,4.083333492279053,12.54915L4.083333492279053,21.6063C4.087077902279053,23.2056,5.357553492279052,24.5,6.923453492279053,24.5ZM6.117563492279053,11.34552L13.015033492279052,5.43011C13.288743492279053,5.19172,13.638863492279052,5.05975,14.001483492279053,5.05975C14.362733492279053,5.05971,14.712133492279053,5.1915700000000005,14.986533492279053,5.43153L22.03663349227905,11.344100000000001C22.374233492279053,11.63925,22.567333492279054,12.06778,22.567333492279054,12.51618L22.567333492279054,21.4521C22.564333492279054,22.3046,21.886333492279054,22.9939,21.051533492279052,22.9931L7.104013492279053,22.9931C6.269003492279053,22.9931,5.588213492279053,22.3021,5.588213492279053,21.4521L5.588213492279053,12.51618C5.588273492279052,12.06561,5.781753492279053,11.63772,6.117563492279053,11.34552Z" fill-rule="evenodd" fill="#4A4A4A" fill-opacity="1"/></g><g><path d="M17.40927958602905,18.66667L10.590369586029052,18.66667C10.218383586029052,18.66667,9.916829586029053,18.405499,9.916829586029053,18.083333C9.916829586029053,17.761167,10.218383586029052,17.5,10.590369586029052,17.5L17.410629586029053,17.5C17.651259586029052,17.5002084,17.873489586029052,17.611584,17.993599586029053,17.792172C18.113699586029053,17.97276,18.113449586029052,18.195125,17.992919586029053,18.375505C17.872399586029054,18.55588,17.649919586029053,18.66687,17.40927958602905,18.66667Z" fill="#4A4A4A" fill-opacity="1"/></g></g></g></svg>