<svg xmlns="http://www.w3.org/2000/svg" xmlns:xlink="http://www.w3.org/1999/xlink" fill="none" version="1.1" width="28" height="28" viewBox="0 0 28 28"><g><g><g><g><path d="M21.9512,21.9512Q25.25,18.6524,25.25,13.9993L25.25,13.9991Q25.2489,9.34599,21.9507,6.04807Q18.6523,2.750000953674,13.9993,2.75Q9.346409999999999,2.75,6.04807,6.04864Q2.75,9.34702,2.75,13.9993Q2.749999761581,18.6523,6.04859,21.9512Q9.34712,25.25,13.9993,25.25Q18.6524,25.25,21.9512,21.9512ZM20.89,7.10878Q23.749,9.96744,23.75,13.9993L23.75,13.9995Q23.7499,18.0312,20.8905,20.8905Q18.031100000000002,23.75,13.9993,23.75Q9.96848,23.75,7.1093,20.8906Q4.25,18.031,4.25,13.9993Q4.25,9.9683,7.10878,7.10925Q9.96777,4.25,13.9993,4.25Q18.031,4.25,20.89,7.10878Z" fill-rule="evenodd" fill="#4A4A4A" fill-opacity="1"/></g><g><path d="M18.24497346069336,18.24497610107422C17.07390346069336,19.41605610107422,15.53660346069336,20.00089610107422,13.999303460693358,20.00089610107422C12.46200346069336,20.00089610107422,10.92470346069336,19.41605610107422,9.75363046069336,18.24497610107422C9.482061160693359,17.97300010107422,9.482061160693359,17.532470101074217,9.75363046069336,17.260493101074218C10.02560746069336,16.98892380107422,10.466137460693359,16.98892380107422,10.73811346069336,17.260493101074218C12.535803460693359,19.05818610107422,15.46141346069336,19.05818610107422,17.25910346069336,17.260493101074218C17.53107346069336,16.98892380107422,17.97160346069336,16.98892380107422,18.24358346069336,17.260493101074218C18.37450346069336,17.390763101074217,18.44821346069336,17.567760101074217,18.44848346069336,17.75244610107422C18.448743460693358,17.93713210107422,18.37552346069336,18.11433610107422,18.24497346069336,18.24497610107422L18.24497346069336,18.24497610107422Z" fill="#4A4A4A" fill-opacity="1"/></g></g></g></g></svg>