<svg xmlns="http://www.w3.org/2000/svg" xmlns:xlink="http://www.w3.org/1999/xlink" fill="none" version="1.1" width="28" height="28" viewBox="0 0 28 28"><defs><linearGradient x1="0.5" y1="0" x2="0.5" y2="1" id="master_svg0_1_12947"><stop offset="0%" stop-color="#B6262F" stop-opacity="1"/><stop offset="100%" stop-color="#E2646C" stop-opacity="1"/></linearGradient></defs><g><g><g><g><path d="M3.5,13.9993C3.5,8.21076,8.20937,3.5,13.9993,3.5C19.7892,3.5,24.4986,8.20937,24.5,13.9993C24.5,19.7892,19.7892,24.5,13.9993,24.5C8.21076,24.5,3.5,19.7892,3.5,13.9993ZM13.9992,20.0009C15.5365,20.0009,17.0738,19.4161,18.244799999999998,18.244999999999997C18.3754,18.1143,18.4486,17.9371,18.4483,17.752499999999998C18.4481,17.5678,18.3744,17.3908,18.2434,17.2605C17.9715,16.9889,17.530900000000003,16.9889,17.259,17.2605C15.4613,19.0582,12.53566,19.0582,10.73797,17.2605C10.46599,16.9889,10.025459999999999,16.9889,9.75348,17.2605C9.48191,17.5325,9.48191,17.973,9.75348,18.244999999999997C10.92456,19.4161,12.46186,20.0009,13.9992,20.0009Z" fill-rule="evenodd" fill="url(#master_svg0_1_12947)" fill-opacity="1"/></g></g></g></g></svg>